<?xml version="1.0" encoding="utf-8"?>
<!-- Generator: Adobe Illustrator 28.1.0, SVG Export Plug-In . SVG Version: 6.00 Build 0)  -->
<svg version="1.1" id="Layer_1" focusable="false" xmlns="http://www.w3.org/2000/svg" xmlns:xlink="http://www.w3.org/1999/xlink"
	 x="0px" y="0px" viewBox="0 0 20 20" style="enable-background:new 0 0 20 20;" xml:space="preserve">
<style type="text/css">
	.st0{fill:#FFFFFF;}
	.st1{fill:#0B66C2;}
</style>
<path class="st0" d="M18.5,0h-17C0.7,0,0,0.7,0,1.5v17C0,19.3,0.7,20,1.5,20h17c0.8,0,1.5-0.7,1.5-1.5v-17C20,0.7,19.3,0,18.5,0z"/>
<path class="st1" d="M18.5,0h-17C0.7,0,0,0.7,0,1.5v17C0,19.3,0.7,20,1.5,20h17c0.8,0,1.5-0.7,1.5-1.5v-17C20,0.7,19.3,0,18.5,0z
	 M6,17H3V8h3V17z M4.5,6.2c-1,0-1.7-0.8-1.7-1.8s0.8-1.7,1.8-1.7c0.9,0,1.7,0.8,1.7,1.7C6.3,5.5,5.5,6.3,4.5,6.2z M17,17h-3v-4.7
	c0-1.4-0.6-1.9-1.4-1.9c-1,0.1-1.7,0.9-1.6,1.9l0,0v0.1V17H8V8h2.9v1.3c0.6-0.9,1.6-1.4,2.7-1.4c1.6,0,3.4,0.9,3.4,3.7V17z"/>
</svg>
