<?xml version="1.0" encoding="utf-8"?>
<!-- Generator: Adobe Illustrator 28.3.0, SVG Export Plug-In . SVG Version: 6.00 Build 0)  -->
<svg version="1.1" id="Layer_1" xmlns="http://www.w3.org/2000/svg" xmlns:xlink="http://www.w3.org/1999/xlink" x="0px" y="0px"
	 viewBox="0 0 70 65.1" style="enable-background:new 0 0 70 65.1;" xml:space="preserve">
<style type="text/css">
	.st0{fill:#182631;}
	.st1{fill:#00A6D3;}
	.st2{fill:#35B9ED;}
	.st3{fill:#102154;}
	.st4{fill:#061435;}
	.st5{fill:#4ACCF4;}
	.st6{fill:#FFFFFF;}
	.st7{fill:#0073C1;}
	.st8{fill:#0060B1;}
	.st9{fill:#49CAE8;}
</style>
<g>
	<path class="st0" d="M69,17.8L55.7,0l-42,0.7L0,22.4l1.3,25.1L11,61.3l35.5,3.8l16.3-6.4l7.3-14L69,17.8z"/>
	<path class="st1" d="M62,20.9L51.3,6.7L18.5,7.6l-10.8,17l1,19.7l7.6,11.2l27.9,2.9l13-5.2l5.6-11L62,20.9z"/>
	<path class="st2" d="M35.1,50.7c0.1,0,1.3,0,2.7-0.8c1.5-0.9,6.7-4.6,11-13.4l0.1-0.2l0-0.2c0-0.2,0.2-1.6-0.7-2.7
		c-0.4-0.4-1.1-1-2.3-1c-0.6,0-1.6,0-3.1,0V19.1c0-2.8-1.4-4.3-4.3-4.3h-7.2c-2.8,0-4.3,1.4-4.3,4.3v13.3c-1.3,0-2.2,0-2.7,0
		c-1.2,0-1.9,0.6-2.3,1c-0.6,0.8-0.7,1.7-0.7,2.2c0,0.2,0,0.4,0,0.4l0,0.2l0.1,0.2c4.3,8.8,9.5,12.5,11,13.4
		C33.9,50.8,35.1,50.7,35.1,50.7L35.1,50.7z"/>
	<path class="st3" d="M41.4,19.1v14.5c1.8,0,3.5,0,4.3,0c2.1,0.1,1.8,2.3,1.8,2.3c-3.7,7.5-8.1,11.3-10.5,12.9c-1.1,0.7-2,0.7-2,0.7
		s-0.9,0-2-0.7c-2.5-1.5-6.9-5.4-10.5-12.9c0,0-0.3-2.2,1.8-2.3c0.7,0,2.2,0,3.9,0V19.1c0-2.2,0.9-3,3-3h7.2
		C40.5,16.1,41.4,17,41.4,19.1L41.4,19.1z"/>
	<path class="st4" d="M41.4,33.7V19.1c0-2.2-0.9-3-3-3h-1.9c2.2,0,3,0.9,3,3v14.5C40.2,33.7,41.4,33.7,41.4,33.7z"/>
	<path class="st4" d="M37,48.8c2.5-1.5,6.9-5.4,10.5-12.9c0,0,0.3-2.2-1.8-2.3c-0.5,0-1.4,0-2.5,0c0,0,0.4,0,0.5,0
		c2.1,0.1,1.8,2.3,1.8,2.3c-3.7,7.5-8.1,11.3-10.5,12.9c-0.4,0.2-0.7,0.4-1,0.5c0.6,0.2,1,0.2,1,0.2S35.9,49.5,37,48.8z"/>
	<path class="st5" d="M18.5,7.6l-3.8-5.2l40.2-0.7l-3.5,5L18.5,7.6z"/>
	<path class="st6" d="M51.2,5.1L18.8,5.6l-4.2-3.2l3.8,5.2l32.8-0.9l3.5-5L51.2,5.1z"/>
	<path class="st2" d="M18.5,7.6l-10.8,17l-5.9-1.7L14.6,2.4L18.5,7.6z"/>
	<path class="st6" d="M14.6,2.4l2.1,5.3L7.7,24.6l10.8-17L14.6,2.4z"/>
	<path class="st2" d="M51.3,6.7L62,20.9l5.5-2.2L54.8,1.7L51.3,6.7z"/>
	<path class="st1" d="M62,20.9l0.8,21.3l5.9,2.3l-1.1-25.8L62,20.9z"/>
	<path class="st7" d="M62.8,42.2l-5.6,11l4.4,4.2l7.1-12.9L62.8,42.2z"/>
	<path class="st7" d="M44.1,58.4l1.8,5.2l15.6-6.1l-4.4-4.2L44.1,58.4z"/>
	<path class="st8" d="M44.1,58.4l1.8,5.2l-33.9-3.2l4.2-4.8L44.1,58.4z"/>
	<path class="st7" d="M16.3,55.5L8.7,44.3L2.9,47l9.2,13.3L16.3,55.5z"/>
	<path class="st1" d="M8.7,44.3l-1-19.7l-5.9-1.7L2.9,47L8.7,44.3z"/>
	<path class="st6" d="M54.8,1.7l-2,5L62,20.9L51.3,6.7L54.8,1.7z"/>
	<path class="st9" d="M62,20.9L51.3,6.7L18.5,7.6l-10.8,17l1,19.7l7.6,11.2l27.9,2.9l13-5.2l5.6-11L62,20.9L62,20.9z M56.3,52.3
		l-12.1,4.2l-26.4-3.4l-7-9.8L8.9,24.9l11-14.4l30.5-2l9.9,13.1L62,41.8L56.3,52.3z"/>
</g>
</svg>
